<svg width="29" height="29" viewBox="0 0 29 29" fill="none" xmlns="http://www.w3.org/2000/svg">
<path d="M6.51368 8.66602H18.2556C18.4902 8.66602 18.6804 8.47582 18.6804 8.24121C18.6804 8.00661 18.4902 7.81641 18.2556 7.81641H6.51368C6.27908 7.81641 6.08888 8.00661 6.08888 8.24121C6.08888 8.47582 6.27908 8.66602 6.51368 8.66602ZM22.4863 12.9141H6.51368C6.27908 12.9141 6.08888 13.1043 6.08888 13.3389C6.08888 13.5735 6.27908 13.7637 6.51368 13.7637H22.4863C22.7209 13.7637 22.9111 13.5735 22.9111 13.3389C22.9111 13.1043 22.7209 12.9141 22.4863 12.9141ZM22.4863 10.3652H6.51368C6.27908 10.3652 6.08888 10.5554 6.08888 10.79C6.08888 11.0246 6.27908 11.2148 6.51368 11.2148H22.4863C22.7209 11.2148 22.9111 11.0246 22.9111 10.79C22.9111 10.5554 22.7209 10.3652 22.4863 10.3652ZM22.4863 7.81641H20.238C20.0034 7.81641 19.8132 8.00661 19.8132 8.24121C19.8132 8.47582 20.0034 8.66602 20.238 8.66602H22.4863C22.7209 8.66602 22.9111 8.47582 22.9111 8.24121C22.9111 8.00661 22.7209 7.81641 22.4863 7.81641ZM29 3.59668V2.52051C28.9988 2.06755 28.5988 1.70862 28.1425 1.75586C28.0561 0.773371 27.2292 0 26.2246 0C25.22 0 24.3931 0.773314 24.3068 1.75586C23.8558 1.72397 23.4495 2.05356 23.4492 2.52051V3.59668C23.4463 4.04176 23.848 4.40868 24.2988 4.36133V4.83399H10.6709C10.4667 4.83399 10.2747 4.91352 10.1302 5.05795L9.68057 5.50762L9.2309 5.05795C9.08647 4.91352 8.89446 4.83399 8.69021 4.83399H4.70119V4.36133C5.14553 4.38529 5.55334 4.06396 5.55079 3.59668V2.52051C5.54836 2.07543 5.15222 1.70262 4.69326 1.75586C4.60694 0.773371 3.77998 0 2.77541 0C1.77083 0 0.943934 0.773371 0.857557 1.75586C0.406301 1.72329 0.000244966 2.05407 1.84037e-05 2.52051V3.59668C-0.00275698 4.04176 0.398768 4.40868 0.849627 4.36133V15.0102C0.849627 15.2449 1.03983 15.435 1.27443 15.435C1.50904 15.435 1.69924 15.2449 1.69924 15.0102V4.36133H3.85158V24.6387H1.69924V16.9926C1.69924 16.7579 1.50904 16.5678 1.27443 16.5678C1.03983 16.5678 0.849627 16.7579 0.849627 16.9926V24.6387C0.40109 24.6097 0.000188325 24.9398 1.84037e-05 25.4033V26.4795C-0.00315347 26.9258 0.404149 27.2961 0.857557 27.2441C0.943934 28.2267 1.77083 29 2.77541 29C3.77998 29 4.60688 28.2267 4.69326 27.2441C5.14213 27.2756 5.55289 26.9469 5.55079 26.4795V25.4033C5.54876 24.962 5.15703 24.5881 4.70119 24.6387V24.166H19.8377C20.042 24.166 20.2341 24.0864 20.3784 23.942L20.8281 23.4924L21.2776 23.9419C21.422 24.0865 21.6141 24.1661 21.8184 24.1661H24.2988V24.6387C23.8506 24.6104 23.4494 24.9394 23.4492 25.4033V26.4795C23.4459 26.9258 23.8533 27.2961 24.3068 27.2441C24.3931 28.2267 25.22 29 26.2246 29C27.2292 29 28.0561 28.2267 28.1425 27.2441C28.591 27.2756 29.0021 26.9469 29 26.4795V25.4033C28.9994 24.9391 28.6009 24.6051 28.1504 24.6387V4.36133C28.5969 4.39146 29.002 4.05943 29 3.59668ZM26.2246 0.849609C26.76 0.849609 27.2041 1.24309 27.286 1.75586H25.1632C25.2451 1.24315 25.6892 0.849609 26.2246 0.849609ZM2.77541 0.849609C3.31083 0.849609 3.75495 1.24309 3.83679 1.75586H1.71402C1.79592 1.24315 2.23998 0.849609 2.77541 0.849609ZM2.77541 28.1504C2.23998 28.1504 1.79586 27.7569 1.71396 27.2441H3.83685C3.75495 27.7569 3.31089 28.1504 2.77541 28.1504ZM4.70119 26.3945H0.849627V25.4883H4.70119V26.3945ZM0.849627 3.51172V2.60547H4.70119V3.51172H0.849627ZM21.8537 23.3165L21.3687 22.8315C21.0705 22.5335 20.5855 22.5334 20.2874 22.8315L19.8025 23.3165H4.70119V5.6836H8.65498L9.13988 6.1685C9.43804 6.46666 9.92311 6.46666 10.2213 6.1685L10.7062 5.6836H24.2988V23.3165H21.8537ZM26.2246 28.1504C25.6892 28.1504 25.2451 27.7569 25.1632 27.2441H27.286C27.2041 27.7569 26.7601 28.1504 26.2246 28.1504ZM28.1504 26.3945H24.2988V25.4883H28.1504V26.3945ZM25.1484 24.6387V4.36133H27.3008V24.6387H25.1484ZM24.2988 3.51172V2.60547H28.1504V3.51172H24.2988ZM22.4863 18.0117H6.51368C6.27908 18.0117 6.08888 18.2019 6.08888 18.4365C6.08888 18.6712 6.27908 18.8613 6.51368 18.8613H22.4863C22.7209 18.8613 22.9111 18.6712 22.9111 18.4365C22.9111 18.2019 22.7209 18.0117 22.4863 18.0117ZM17.3887 20.5605H6.51368C6.27908 20.5605 6.08888 20.7507 6.08888 20.9854C6.08888 21.22 6.27908 21.4102 6.51368 21.4102H17.3887C17.6233 21.4102 17.8135 21.22 17.8135 20.9854C17.8135 20.7507 17.6233 20.5605 17.3887 20.5605ZM22.4863 15.4629H6.51368C6.27908 15.4629 6.08888 15.653 6.08888 15.8877C6.08888 16.1224 6.27908 16.3125 6.51368 16.3125H22.4863C22.7209 16.3125 22.9111 16.1224 22.9111 15.8877C22.9111 15.653 22.7209 15.4629 22.4863 15.4629Z" fill="white"/>
</svg>
