<svg width="28" height="32" viewBox="0 0 28 32" fill="none" xmlns="http://www.w3.org/2000/svg">
<path d="M22.5463 24.1056C25.5535 24.1056 28 21.7013 28 18.746C28 17.5305 27.5742 16.3399 26.801 15.3937C26.2683 14.7419 25.5852 14.2218 24.8193 13.8754C25.0266 13.2063 25.1313 12.5113 25.1313 11.7992C25.1313 10.0915 24.5082 8.43861 23.3769 7.14506C22.4247 6.05617 21.1634 5.27692 19.7691 4.90407C19.5896 3.67574 19.0111 2.54268 18.0988 1.65566C17.0005 0.587955 15.5449 0 14 0C12.4551 0 10.9995 0.587955 9.90125 1.6556C8.98886 2.54262 8.41041 3.67567 8.23095 4.904C6.83656 5.27686 5.57541 6.05611 4.6231 7.14499C3.49177 8.43855 2.8687 10.0915 2.8687 11.7992C2.8687 12.5113 2.97334 13.2062 3.18071 13.8753C2.41479 14.2218 1.73171 14.7418 1.19904 15.3937C0.425807 16.3399 0 17.5304 0 18.746C0 21.7012 2.44651 24.1056 5.45367 24.1056H13.0465V30.1257H5.18158V32H22.8184V30.1257H14.9536V24.1056H22.5463V24.1056ZM5.45361 22.2314C3.49806 22.2314 1.9071 20.6678 1.9071 18.746C1.9071 17.1197 3.03106 15.7249 4.64033 15.3539L5.7873 15.0896L5.2852 14.0422C4.94725 13.3372 4.77586 12.5825 4.77586 11.7992C4.77586 10.5395 5.2353 9.32051 6.06943 8.3667C6.89517 7.42257 8.03432 6.79394 9.27709 6.59665L10.069 6.47095L10.0785 5.6827C10.104 3.58271 11.8631 1.87426 14 1.87426C16.1369 1.87426 17.896 3.58271 17.9214 5.68263L17.9309 6.47088L18.7228 6.59658C19.9656 6.79388 21.1048 7.42251 21.9305 8.36664C22.7647 9.32051 23.2241 10.5395 23.2241 11.7992C23.2241 12.5825 23.0527 13.3371 22.7147 14.0421L22.2126 15.0895L23.3596 15.3539C24.9689 15.7249 26.0928 17.1197 26.0928 18.746C26.0928 20.6678 24.5019 22.2313 22.5463 22.2313H14.9536V17.019L18.4461 13.5868L17.0976 12.2615L14.9535 14.3685V8.15809H13.0464V10.9882L10.9023 8.88118L9.55376 10.2065L13.0463 13.6387V17.7487L10.9023 15.6416L9.5537 16.9669L13.0462 20.3992V22.2312H5.45361V22.2314Z" fill="white"/>
</svg>
