<svg id="DH" xmlns="http://www.w3.org/2000/svg" viewBox="0 0 22.91 18.96"><defs><style>.cls-1{fill:#fcfcfc;}</style></defs><title>DH</title><path class="cls-1" d="M8.71,2.89H8A2.61,2.61,0,0,0,10.57,5.5V7.18a.19.19,0,0,0,.19.19h.37a.19.19,0,0,0,.19-.19V5.5A2.61,2.61,0,0,0,8.71,2.89Zm4.48-.75A2.61,2.61,0,0,0,10.9,3.49a3,3,0,0,1,.69,1.25,2.61,2.61,0,0,0,2.34-2.6Z" transform="translate(-0.55 -2.15)"/><path class="cls-1" d="M20.59,9.08a4,4,0,1,0-4,4A4,4,0,0,0,20.59,9.08ZM9.71,18.36v1a1.72,1.72,0,0,0,1.72,1.72H21.74a1.72,1.72,0,0,0,1.72-1.72v-1a4.12,4.12,0,0,0-4.12-4.12H19a5.53,5.53,0,0,1-4.9,0h-.3A4.12,4.12,0,0,0,9.71,18.36Zm0-8.7a3.44,3.44,0,1,0-3.44,3.44A3.44,3.44,0,0,0,9.71,9.65ZM.55,18.24A1.72,1.72,0,0,0,2.26,20H8.59c0-.08,0-.15,0-.23V18.36A5.24,5.24,0,0,1,10,14.79a4,4,0,0,0-2-.55H7.86a4.82,4.82,0,0,1-1.58.29,4.82,4.82,0,0,1-1.58-.29H4.56A4,4,0,0,0,.55,18.24Z" transform="translate(-0.55 -2.15)"/></svg>