<svg id="Arte" xmlns="http://www.w3.org/2000/svg" viewBox="0 0 19.19 19.19"><defs><style>.cls-1{fill:#fcfcfc;}</style></defs><title>Arte</title><path class="cls-1" d="M21.51,15.43c-.11,3.48-1.67,5.75-4.15,6.06-3.41.44-5.73-.77-6.5-4.16-.95.94-1.78,1.89-2.73,2.72a3.6,3.6,0,0,1-1.9,1c-.92.2-1.87.33-2.81.48-.7.11-1.11-.29-1-1,.19-1.16.38-2.33.63-3.48.07-.31,0-.3.54-.85C4.7,15.11,5.84,14,7,12.89c.56-.56.58-.44,0-1.07C6,10.68,5,9.61,4,8.5A12.29,12.29,0,0,1,3,7.31a2.88,2.88,0,0,1,.71-4C5.2,2.08,6.9,2.12,8,3.51c1.18,1.56,2.24,3.22,3.41,4.92.25-.23.47-.42.69-.63l4.48-4.47c1.23-1.22,2-1.23,3.23,0l.86.86c1.32,1.33,1.32,2.06,0,3.41l-4.83,4.84c-.22.22-.42.45-.73.79a4.46,4.46,0,0,1,3.59,2.93c.24.58.75.67,1.29.33Zm-18,5a5.06,5.06,0,0,0,.82-.07c2.57-.68,2.78-.67,3.89-1.85,2.87-3,5.89-5.93,8.85-8.88.24-.24.45-.49.56-.61L14.93,6.3,14.27,7c-2.94,3-5.82,6-8.88,8.85C4,17.14,4.37,17,3.53,20.46ZM20.28,17.8c-1.72,0-2.14-.27-2.78-1.65a2.69,2.69,0,0,0-4.57-.92A2.56,2.56,0,0,0,12.61,19a4.6,4.6,0,0,0,6.34.6A11.28,11.28,0,0,0,20.28,17.8Zm-12-6c.76-.82,1.39-1.52,2-2.22.33-.36.35-.27.08-.72-.95-1.58-2-3.09-3.09-4.58A2,2,0,0,0,4.3,4,1.9,1.9,0,0,0,3.91,6.9c.53.68,1.13,1.31,1.7,1.95ZM18.76,8.16A18.51,18.51,0,0,0,20.3,6.37a1.14,1.14,0,0,0,0-1.06,12.68,12.68,0,0,0-1.5-1.55.85.85,0,0,0-1.24,0c-.6.49-1.18,1-1.73,1.47Z" transform="translate(-2.41 -2.41)"/></svg>