<svg id="CCFF" xmlns="http://www.w3.org/2000/svg" viewBox="0 0 20.19 21.28"><defs><style>.cls-1{fill:#fbfafc;}</style></defs><title>CCF</title><path class="cls-1" d="M12.2,6.58a1.82,1.82,0,1,0-1.82-1.82A1.82,1.82,0,0,0,12.2,6.58ZM6.19,15,5.63,16.3H3.08a1.22,1.22,0,1,0,0,2.43H6a1.82,1.82,0,0,0,1.68-1.1L8,16.85l-.41-.24A3.62,3.62,0,0,1,6.19,15Zm10.27-3.55H14.78l-1-2a3.64,3.64,0,0,0-2.35-1.93l-2.7-.8a3.63,3.63,0,0,0-3.07.65L4.17,8.49a1.22,1.22,0,0,0,1.48,1.93L7.16,9.26a1.18,1.18,0,0,1,1-.23l.56.17L7.25,12.51a2.44,2.44,0,0,0,1,3.05l3.23,1.91-1,3.33a1.22,1.22,0,1,0,2.32.73L14,17.69a1.83,1.83,0,0,0-.82-2.07l-2.33-1.37,1.19-3,.77,1.57a1.83,1.83,0,0,0,1.64,1h2.05a1.22,1.22,0,1,0,0-2.43Z" transform="translate(-1.87 -1.11)"/><path class="cls-1" d="M20,3.35,19.51,4.4a.17.17,0,0,1-.31,0l-.6-1.34-.32.76h-1l1.93,2a.19.19,0,0,0,.27,0l1.93-2H20.26L20,3.35Zm1.62-1.8,0,0a1.38,1.38,0,0,0-2,0l-.29.3-.29-.3a1.38,1.38,0,0,0-2,0l0,0A1.45,1.45,0,0,0,17,3.48h1.08l.38-.91a.17.17,0,0,1,.31,0l.62,1.37.52-1a.17.17,0,0,1,.3,0l.29.58h1.26a1.45,1.45,0,0,0-.08-1.93Z" transform="translate(-1.87 -1.11)"/></svg>