<svg width="641" height="453" viewBox="0 0 641 453" fill="none" xmlns="http://www.w3.org/2000/svg">
<path d="M53.1917 170.84C58.3894 170.84 62.5903 166.632 62.5903 161.425V45.9699C62.5903 31.2415 74.5523 19.2591 89.2555 19.2591H550.984C565.687 19.2591 577.649 31.2415 577.649 45.9699V116.241C577.649 121.448 581.85 125.656 587.048 125.656C592.245 125.656 596.446 121.448 596.446 116.241V45.9699C596.446 20.8639 576.047 0.429688 550.984 0.429688H89.2555C64.1924 0.429688 43.793 20.8639 43.793 45.9699V161.425C43.793 166.632 48.0117 170.84 53.1917 170.84Z" fill="#FF9900"/>
<path d="M630.833 378.992H596.443V153.894C596.443 148.687 592.242 144.479 587.044 144.479C581.846 144.479 577.645 148.687 577.645 153.894V378.992H554.291V320.595C554.291 315.389 550.09 311.181 544.892 311.181C539.695 311.181 535.494 315.389 535.494 320.595V378.992H377.799C372.601 378.992 368.4 383.2 368.4 388.406V395.646C368.4 397.447 366.94 398.927 365.125 398.927H249.902C248.104 398.927 246.626 397.464 246.626 395.646V388.406C246.626 383.2 242.426 378.992 237.228 378.992H104.738V61.4762H535.511V282.954C535.511 288.161 539.712 292.369 544.91 292.369C550.108 292.369 554.309 288.161 554.309 282.954V52.0615C554.309 46.8549 550.108 42.6468 544.91 42.6468H95.3397C90.1419 42.6468 85.941 46.8549 85.941 52.0615V378.992H62.5867V199.078C62.5867 193.871 58.3858 189.663 53.188 189.663C47.9902 189.663 43.7893 193.871 43.7893 199.078V378.992H9.39868C4.20093 378.992 0 383.2 0 388.406V417.043C0 436.746 16.0027 452.776 35.6723 452.776H604.542C624.211 452.776 640.214 436.746 640.214 417.043V388.406C640.232 383.217 636.031 378.992 630.833 378.992ZM621.452 417.043C621.452 426.368 613.887 433.964 604.56 433.964H35.6901C26.3804 433.964 18.7974 426.386 18.7974 417.043V397.821H227.972C229.057 409.001 238.492 417.756 249.937 417.756H365.16C376.588 417.756 386.022 409.001 387.126 397.821H621.47L621.452 417.043Z" fill="#FF9900"/>
<path d="M261.04 304.323C258.459 308.816 259.99 314.558 264.476 317.161C281.333 326.897 300.575 332.032 320.138 332.032C381.657 332.032 431.712 281.892 431.712 220.268C431.712 158.644 381.657 108.504 320.138 108.504C258.62 108.504 208.564 158.644 208.564 220.268C208.564 245.784 217.376 270.729 233.361 290.522C236.618 294.551 242.528 295.176 246.551 291.912C250.574 288.649 251.197 282.73 247.939 278.7C234.446 261.992 227.326 241.79 227.326 220.268C227.326 169.004 268.962 127.28 320.156 127.28C371.35 127.28 412.986 168.986 412.986 220.268C412.986 271.532 371.35 313.256 320.156 313.256C303.886 313.256 287.884 308.977 273.875 300.881C269.371 298.278 263.621 299.829 261.04 304.323Z" fill="#FF9900"/>
<path d="M257.485 230.924C270.283 243.745 283.082 256.565 295.88 269.385C298.942 272.452 304.14 272.452 307.201 269.385C332.407 244.137 357.595 218.906 382.8 193.658C390.099 186.347 378.777 174.989 371.479 182.317C346.274 207.566 321.086 232.796 295.88 258.045C299.654 258.045 303.428 258.045 307.201 258.045C294.403 245.225 281.604 232.404 268.806 219.584C261.507 212.273 250.186 223.614 257.485 230.924Z" fill="#FF9900"/>
</svg>
