<svg width="641" height="454" viewBox="0 0 641 454" fill="none" xmlns="http://www.w3.org/2000/svg">
<path d="M53.1917 171.269C58.3894 171.269 62.5903 167.061 62.5903 161.855V46.3996C62.5903 31.6713 74.5523 19.6888 89.2555 19.6888H550.984C565.687 19.6888 577.649 31.6713 577.649 46.3996V116.671C577.649 121.878 581.85 126.086 587.048 126.086C592.245 126.086 596.446 121.878 596.446 116.671V46.3996C596.446 21.2937 576.047 0.85936 550.984 0.85936H89.2555C64.1924 0.85936 43.793 21.2937 43.793 46.3996V161.855C43.793 167.061 48.0117 171.269 53.1917 171.269Z" fill="#D22828"/>
<path d="M630.833 379.421H596.443V154.324C596.443 149.117 592.242 144.909 587.044 144.909C581.846 144.909 577.645 149.117 577.645 154.324V379.421H554.291V321.025C554.291 315.818 550.09 311.61 544.892 311.61C539.695 311.61 535.494 315.818 535.494 321.025V379.421H377.799C372.601 379.421 368.4 383.629 368.4 388.836V396.075C368.4 397.876 366.94 399.356 365.125 399.356H249.902C248.104 399.356 246.626 397.894 246.626 396.075V388.836C246.626 383.629 242.426 379.421 237.228 379.421H104.738V61.9059H535.511V283.384C535.511 288.59 539.712 292.799 544.91 292.799C550.108 292.799 554.309 288.59 554.309 283.384V52.4912C554.309 47.2845 550.108 43.0765 544.91 43.0765H95.3397C90.1419 43.0765 85.941 47.2845 85.941 52.4912V379.421H62.5867V199.507C62.5867 194.301 58.3858 190.092 53.188 190.092C47.9902 190.092 43.7893 194.301 43.7893 199.507V379.421H9.39868C4.20093 379.421 0 383.629 0 388.836V417.472C0 437.176 16.0027 453.205 35.6723 453.205H604.542C624.211 453.205 640.214 437.176 640.214 417.472V388.836C640.232 383.629 636.031 379.421 630.833 379.421ZM621.452 417.455C621.452 426.78 613.887 434.376 604.56 434.376H35.6901C26.3804 434.376 18.7974 426.798 18.7974 417.455V398.233H227.972C229.057 409.413 238.492 418.168 249.937 418.168H365.16C376.588 418.168 386.022 409.413 387.126 398.233H621.47L621.452 417.455Z" fill="#D22828"/>
<path d="M277.142 300.969C272.479 300.969 268.1 300.969 263.543 300.969C263.489 300.166 263.4 299.4 263.4 298.633C263.632 253.503 263.721 208.391 264.166 163.261C264.308 148.907 269.826 136.425 279.723 126.012C288.713 116.561 299.767 110.891 312.654 109.34C340.477 105.952 366.003 123.444 372.375 151.278C373.497 156.182 373.924 161.085 373.87 166.131C373.461 207.107 373.23 248.082 372.838 289.04C372.767 297.099 369.741 304.25 365.255 310.847C350.89 331.959 318.244 334.58 300.871 314.378C294.516 306.996 290.92 298.401 290.938 288.63C291.027 247.209 291.223 205.805 291.454 164.384C291.543 148.443 304.537 135.819 320.184 136.264C333 136.621 344.179 146.589 345.888 159.213C346.191 161.477 346.386 163.76 346.386 166.042C346.244 201.009 346.048 235.975 345.87 270.942C345.87 271.637 345.87 272.332 345.87 273.242C341.278 273.242 336.845 273.242 332.11 273.242C332.11 272.207 332.11 271.173 332.11 270.157C332.288 235.101 332.502 200.046 332.662 164.99C332.698 156.984 328.515 151.777 321.056 150.351C314.363 149.067 306.958 154.095 305.73 160.889C305.392 162.779 305.214 164.741 305.214 166.666C305 206.929 304.787 247.191 304.662 287.471C304.626 300.933 314.203 312.488 327.945 314.199C342.631 316.018 355.856 306.496 358.562 292.731C358.936 290.841 359.114 288.897 359.132 286.971C359.452 246.263 359.772 205.556 360.004 164.848C360.111 144.627 348.024 128.776 328.978 123.926C307.492 118.451 284.69 132.092 279.35 153.828C278.335 157.965 277.961 162.351 277.926 166.631C277.587 210.156 277.374 253.699 277.142 297.224C277.142 298.348 277.142 299.489 277.142 300.969Z" fill="#D22828"/>
</svg>
