<svg id="Inlges" xmlns="http://www.w3.org/2000/svg" viewBox="0 0 26.84 24.01"><defs><style>.cls-1{fill:none;stroke:#fcfcfc;stroke-miterlimit:10;stroke-width:0.75px;}.cls-2{font-size:8px;font-family:Rockwell-Regular, Rockwell;}.cls-2,.cls-3{fill:#fcfcfc;}</style></defs><title>Ingles</title><rect class="cls-1" x="0.38" y="0.38" width="11.37" height="11.42"/><rect class="cls-1" x="12.3" y="12.22" width="11.37" height="11.42"/><text class="cls-2" transform="translate(13.68 8.59)">IN</text><path class="cls-3" d="M6.25,2.1a4,4,0,1,0,4,4A4,4,0,0,0,6.25,2.1ZM8.8,5.53v.11a.25.25,0,0,1-.14.22L8.42,6a.25.25,0,0,1-.25,0l-.29-.19a.25.25,0,0,0-.22,0h0a.25.25,0,0,0-.13.37l.21.32a.25.25,0,0,0,.21.11H8a.25.25,0,0,1,.25.25V7a.25.25,0,0,1,0,.15l-.3.4a.25.25,0,0,0,0,.1L7.83,8a.25.25,0,0,1-.08.14,2.54,2.54,0,0,0-.4.46l-.21.31a.44.44,0,0,1-.76,0,1.26,1.26,0,0,1-.13-.56V7.83A.25.25,0,0,0,6,7.58H5.59a.87.87,0,0,1-.87-.87V6.49a.87.87,0,0,1,.35-.7l.44-.33A.87.87,0,0,1,6,5.29H6a.87.87,0,0,1,.39.09l.23.12a.25.25,0,0,0,.19,0l.75-.25a.25.25,0,0,0-.08-.48H7.37A.25.25,0,0,1,7.2,4.7l-.11-.11a.25.25,0,0,0-.17-.07H5.48a.25.25,0,0,1-.25-.25V4.2A.25.25,0,0,1,5.42,4l.23-.06a.25.25,0,0,0,.15-.1l.13-.19a.25.25,0,0,1,.21-.11h.39a.25.25,0,0,0,.25-.25V2.91A3.19,3.19,0,0,1,9.34,5.29H9A.25.25,0,0,0,8.8,5.53Z" transform="translate(0.04 -0.01)"/><path class="cls-3" d="M14.73,18.69a3.48,3.48,0,0,1-.09-.76,3.3,3.3,0,0,1,3.3-3.3,3.43,3.43,0,0,1,.73.08A6.8,6.8,0,0,0,14.73,18.69Zm5.81-2.8a3.27,3.27,0,0,0-.71-.67,6.78,6.78,0,0,0-4.58,4.62,3.32,3.32,0,0,0,.67.73,6.81,6.81,0,0,1,4.62-4.67Zm.23,3.74a3.26,3.26,0,0,0,.44-1.23,6.91,6.91,0,0,0-2.78,2.82,3.28,3.28,0,0,0,1.25-.46,15.7,15.7,0,0,0,1.58.5A16.32,16.32,0,0,0,20.77,19.63Zm.44-2.15a3.14,3.14,0,0,0-.23-.84A6.82,6.82,0,0,0,16.67,21a3.32,3.32,0,0,0,.84.22,6.84,6.84,0,0,1,3.71-3.75Z" transform="translate(0.04 -0.01)"/><path class="cls-3" d="M7.36,18.84,6,20.18,4.69,18.84a1.87,1.87,0,0,0-1.8,1.87v.13a.67.67,0,0,0,.67.67H8.49a.67.67,0,0,0,.67-.67v-.13a1.87,1.87,0,0,0-1.8-1.87ZM3.08,15.48l.09,0v.82a.32.32,0,0,0,0,.56l-.22.87c0,.1,0,.2.11.2h.58c.08,0,.13-.1.11-.2l-.22-.87a.32.32,0,0,0,0-.56v-.74l.92.22a1.79,1.79,0,1,0,3.38.8,1.76,1.76,0,0,0-.2-.8L9,15.48A.22.22,0,0,0,9,15L6.3,14.39a1.2,1.2,0,0,0-.56,0L3.08,15A.22.22,0,0,0,3.08,15.48Z" transform="translate(0.04 -0.01)"/></svg>