<svg width="33" height="23" viewBox="0 0 33 23" fill="none" xmlns="http://www.w3.org/2000/svg">
<path d="M32.3603 1.91392C32.3582 1.91392 32.356 1.91392 32.3539 1.91392H30.1855V1.19311C30.1972 0.90782 30.0072 0.651421 29.7249 0.571728C28.2195 0.188488 26.6693 -0.00367509 25.113 5.32235e-05C22.5544 5.32235e-05 19.0682 0.5593 16.4904 3.10698C13.9318 0.534445 10.42 5.32235e-05 7.8678 5.32235e-05C6.31151 -0.00367509 4.7613 0.188488 3.25586 0.571728C2.97361 0.651421 2.78364 0.90782 2.79531 1.19311V1.90771H0.639659C0.286407 1.90771 0 2.18593 0 2.52909V22.3762C0 22.7193 0.286407 22.9975 0.639659 22.9975C0.74952 22.9972 0.857463 22.9694 0.953092 22.9168C1.01706 22.8857 7.41365 19.4867 16.3433 21.674H16.4392H16.4968C16.5478 21.68 16.5993 21.68 16.6503 21.674C25.6055 19.4681 32.0021 22.8608 32.0405 22.9168C32.2384 23.0278 32.4823 23.0278 32.6802 22.9168C32.8769 22.8065 32.9986 22.603 33 22.3824V2.53531C33 2.19215 32.7137 1.91392 32.3603 1.91392ZM1.27932 21.3881V3.15669H2.8081V18.741C2.8041 19.0842 3.08723 19.3655 3.44049 19.3694C3.47503 19.3698 3.50957 19.3675 3.54371 19.3624C4.867 19.1662 6.20301 19.0623 7.54158 19.0517C9.39579 19.0205 11.2422 19.2914 13.0043 19.8533C9.02519 19.3859 4.9891 19.9142 1.27932 21.3881ZM7.54158 17.8152C6.37812 17.8177 5.21602 17.8904 4.06183 18.0327V1.68401C5.30725 1.41448 6.57905 1.27692 7.85501 1.27389C10.2473 1.27389 13.548 1.80829 15.838 4.31868L15.8571 19.7974C14.5267 18.9523 11.9296 17.8152 7.54158 17.8152ZM17.1365 4.31868C19.4264 1.83314 22.7271 1.27389 25.1194 1.27389C26.3953 1.27754 27.6671 1.41503 28.9126 1.68401V18.0327C27.7649 17.889 26.6092 17.8143 25.452 17.809C21.0896 17.809 18.4861 18.9461 17.1365 19.7912V4.31868V4.31868ZM31.7143 21.3881C27.9966 19.9102 23.9512 19.3818 19.9638 19.8533C21.7341 19.2894 23.5893 19.0184 25.452 19.0517C26.799 19.059 28.1436 19.1608 29.4755 19.3562C29.8247 19.4077 30.1509 19.1744 30.2039 18.8351C30.2091 18.8019 30.2115 18.7684 30.2111 18.7348V3.15669H31.7399L31.7143 21.3881Z" fill="white"/>
</svg>
