<svg width="24" height="24" viewBox="0 0 24 24" fill="none" xmlns="http://www.w3.org/2000/svg">
<path d="M2.75 24C1.231 24 0 22.769 0 21.25V12.5H11.5V24H2.75ZM7.25 17.25H6.25V16.25C6.25 15.836 5.914 15.5 5.5 15.5C5.086 15.5 4.75 15.836 4.75 16.25V17.25H3.75C3.336 17.25 3 17.586 3 18C3 18.414 3.336 18.75 3.75 18.75H4.75V19.75C4.75 20.164 5.086 20.5 5.5 20.5C5.914 20.5 6.25 20.164 6.25 19.75V18.75H7.25C7.664 18.75 8 18.414 8 18C8 17.586 7.664 17.25 7.25 17.25Z" fill="white"/>
<path d="M0 11.5V2.75C0 1.231 1.231 2.05636e-06 2.75 2.05636e-06H11.5V11.5H0ZM7.53 5.03C7.823 4.737 7.823 4.262 7.53 3.969C7.384 3.823 7.192 3.75 7 3.75C6.808 3.75 6.616 3.823 6.47 3.97L5.75 4.69L5.03 3.97C4.884 3.824 4.692 3.75 4.5 3.75C4.308 3.75 4.116 3.823 3.97 3.97C3.677 4.263 3.677 4.738 3.97 5.031L4.69 5.751L3.97 6.471C3.677 6.764 3.677 7.239 3.97 7.532C4.263 7.825 4.738 7.825 5.031 7.532L5.751 6.812L6.471 7.532C6.764 7.825 7.239 7.825 7.532 7.532C7.825 7.239 7.825 6.764 7.532 6.471L6.812 5.751L7.53 5.03Z" fill="white"/>
<path d="M21.25 24H12.5V12.5H24V21.25C24 22.769 22.769 24 21.25 24ZM20.75 17.5H16.25C15.836 17.5 15.5 17.836 15.5 18.25C15.5 18.664 15.836 19 16.25 19H20.75C21.164 19 21.5 18.664 21.5 18.25C21.5 17.836 21.164 17.5 20.75 17.5Z" fill="white"/>
<path d="M12.5 11.5V2.05636e-06H21.25C22.769 2.05636e-06 24 1.231 24 2.75V11.5H12.5ZM20.5 3.5H16C15.586 3.5 15.25 3.836 15.25 4.25C15.25 4.664 15.586 5 16 5H20.5C20.914 5 21.25 4.664 21.25 4.25C21.25 3.836 20.914 3.5 20.5 3.5ZM20.5 6.5H16C15.586 6.5 15.25 6.836 15.25 7.25C15.25 7.664 15.586 8 16 8H20.5C20.914 8 21.25 7.664 21.25 7.25C21.25 6.836 20.914 6.5 20.5 6.5Z" fill="white"/>
</svg>
