<svg width="641" height="453" viewBox="0 0 641 453" fill="none" xmlns="http://www.w3.org/2000/svg">
<path d="M53.1916 170.41C58.3894 170.41 62.5903 166.202 62.5903 160.995V45.5401C62.5903 30.8118 74.5523 18.8294 89.2555 18.8294H550.984C565.687 18.8294 577.649 30.8118 577.649 45.5401V115.812C577.649 121.018 581.85 125.227 587.048 125.227C592.245 125.227 596.446 121.018 596.446 115.812V45.5401C596.446 20.4342 576.047 0 550.984 0H89.2555C64.1924 0 43.793 20.4342 43.793 45.5401V160.995C43.793 166.184 47.9939 170.41 53.1916 170.41Z" fill="#3443CF"/>
<path d="M630.833 378.562H596.443V153.464C596.443 148.258 592.242 144.05 587.044 144.05C581.846 144.05 577.645 148.258 577.645 153.464V378.562H554.291V320.166C554.291 314.959 550.09 310.751 544.892 310.751C539.694 310.751 535.494 314.959 535.494 320.166V378.562H377.799C372.601 378.562 368.4 382.77 368.4 387.977V395.216C368.4 397.017 366.94 398.497 365.125 398.497H249.92C248.122 398.497 246.644 397.035 246.644 395.216V387.977C246.644 382.77 242.443 378.562 237.246 378.562H104.721V61.0466H535.494V282.525C535.494 287.731 539.694 291.939 544.892 291.939C550.09 291.939 554.291 287.731 554.291 282.525V51.6318C554.291 46.4252 550.09 42.2172 544.892 42.2172H95.3219C90.1241 42.2172 85.9232 46.4252 85.9232 51.6318V378.562H62.5867V198.648C62.5867 193.441 58.3858 189.233 53.188 189.233C47.9902 189.233 43.7893 193.441 43.7893 198.648V378.562H9.39868C4.20093 378.562 0 382.77 0 387.977V416.613C0 436.317 16.0027 452.346 35.6723 452.346H604.542C624.211 452.346 640.214 436.317 640.214 416.613V387.977C640.232 382.77 636.013 378.562 630.833 378.562ZM621.435 416.596C621.435 425.921 613.869 433.517 604.542 433.517H35.6723C26.3626 433.517 18.7796 425.921 18.7796 416.596V397.374H227.954C229.04 408.554 238.474 417.309 249.92 417.309H365.142C376.57 417.309 386.005 408.554 387.108 397.374H621.452L621.435 416.596Z" fill="#3443CF"/>
<path d="M426.853 129.823C425.111 127.028 422.604 124.96 420.347 122.653C415.847 118.04 411.209 113.578 406.709 108.965C402.974 105.13 398.612 102.786 392.357 102.786C389.687 102.723 386.44 103.55 383.645 105.568C381.477 107.135 379.496 108.99 377.578 110.871C373.028 115.345 368.566 119.921 364.053 124.433C359.816 128.67 355.529 132.869 351.293 137.106C346.379 142.02 341.49 146.958 336.577 151.885C333.029 155.445 329.444 158.967 325.884 162.527C320.971 167.44 316.07 172.379 311.143 177.305C306.606 181.843 302.043 186.368 297.493 190.906C295.312 193.087 293.131 195.28 290.95 197.474L295.939 202.463C312.221 186.193 328.492 169.922 344.787 153.627C356.081 164.921 367.362 176.202 378.606 187.434C343.082 222.945 307.596 258.444 272.097 293.93C260.853 282.699 249.572 271.405 238.291 260.123C255.2 243.214 272.11 226.304 289.032 209.382L284.043 204.393C283.642 204.794 283.241 205.196 282.84 205.597C278.352 210.084 273.84 214.547 269.365 219.034C265.228 223.183 261.129 227.357 256.993 231.506C253.395 235.116 249.773 238.689 246.175 242.286C240.923 247.538 235.671 252.791 230.444 258.068C230.055 258.456 229.729 258.97 229.541 259.497C228.739 261.653 227.987 263.834 227.26 266.027C225.355 271.693 223.474 277.371 221.582 283.037C219.701 288.678 217.809 294.319 215.941 299.959C213.973 305.876 212.03 311.792 210.062 317.709C209.611 319.075 209.724 320.316 210.714 321.432C211.742 322.572 213.045 322.748 214.387 322.322C217.821 321.244 221.231 320.103 224.64 318.95C228.426 317.684 232.199 316.368 235.984 315.101C240.635 313.547 245.298 312.056 249.948 310.514C256.128 308.458 262.27 306.277 268.487 304.334C271.834 303.294 274.654 301.752 277.124 299.157C282.94 293.028 289.007 287.136 294.986 281.157C303.723 272.42 312.485 263.708 321.221 254.972C327.552 248.642 333.869 242.274 340.199 235.944C348.936 227.207 357.698 218.495 366.435 209.758C372.765 203.428 379.07 197.073 385.4 190.743C393.159 182.971 400.943 175.225 408.715 167.466C413.39 162.803 418.016 158.077 422.754 153.477C425.913 150.418 428.457 147.034 429.222 142.621C429.987 138.096 429.335 133.809 426.853 129.823ZM260.252 299.746C255.225 301.438 250.211 303.143 245.185 304.823C241.7 305.989 238.203 307.104 234.718 308.27C234.091 308.483 233.653 308.383 233.176 307.906C230.694 305.374 228.175 302.867 225.668 300.348C225.543 300.223 225.455 300.022 225.317 299.947C223.763 299.094 223.863 297.916 224.377 296.412C226.809 289.405 229.153 282.373 231.509 275.341C232.499 272.408 233.452 269.462 234.455 266.479C244.972 276.983 255.363 287.374 265.867 297.853C263.962 298.493 262.107 299.12 260.252 299.746ZM383.708 182.645C372.401 171.301 361.133 159.982 349.926 148.726C354.188 144.464 358.513 140.165 362.787 135.89C373.931 147.046 385.225 158.353 396.606 169.759C392.382 173.971 388.083 178.271 383.708 182.645ZM419.257 147.134C413.792 152.511 408.402 157.964 402.987 163.379C402.61 163.755 402.197 164.119 401.733 164.57C390.414 153.238 379.12 141.945 367.651 130.463C368.892 129.284 370.17 128.119 371.386 126.903C376.049 122.252 380.7 117.602 385.337 112.926C389.562 108.677 396.468 108.602 400.73 112.839C406.998 119.068 413.265 125.311 419.508 131.578C423.782 135.865 423.606 142.86 419.257 147.134Z" fill="#3443CF"/>
<path d="M213.108 325.042C211.466 325.042 209.975 324.377 208.834 323.111C207.756 321.921 206.678 319.877 207.668 316.919C208.696 313.848 209.711 310.765 210.727 307.681C211.667 304.848 212.607 302.003 213.547 299.17C214.838 295.284 216.129 291.411 217.433 287.537L220.867 277.246C222.196 273.248 223.537 269.236 224.879 265.238C225.718 262.718 226.458 260.625 227.185 258.644C227.498 257.792 228.025 256.965 228.664 256.313C233.891 251.036 239.143 245.784 244.408 240.532C245.987 238.952 247.579 237.373 249.159 235.793C251.177 233.788 253.207 231.77 255.213 229.752C257.219 227.746 259.212 225.728 261.192 223.71C263.323 221.566 265.441 219.41 267.572 217.267C270.029 214.797 272.511 212.341 274.98 209.884C277.011 207.866 279.029 205.847 281.06 203.829L284.031 200.846L292.567 209.382L241.826 260.124L272.085 290.383L375.047 187.421L344.787 157.174L295.951 206.01L287.415 197.474L289.183 195.707C291.364 193.513 293.545 191.332 295.738 189.138C297.982 186.895 300.226 184.664 302.457 182.432C304.763 180.138 307.07 177.832 309.376 175.538C311.833 173.081 314.29 170.612 316.747 168.155C319.204 165.686 321.66 163.229 324.117 160.759C325.86 159.017 327.602 157.287 329.344 155.545C331.162 153.74 332.992 151.935 334.797 150.117C337.053 147.849 339.31 145.58 341.566 143.311C344.211 140.654 346.856 137.984 349.513 135.339C351.644 133.208 353.787 131.089 355.931 128.971C358.049 126.878 360.168 124.772 362.273 122.666C363.966 120.974 365.658 119.269 367.35 117.564C370.158 114.731 372.966 111.886 375.811 109.091C377.716 107.223 379.81 105.255 382.166 103.538C385.15 101.382 388.885 100.178 392.407 100.279C398.763 100.279 403.889 102.485 408.49 107.21C410.771 109.554 413.077 111.848 415.396 114.155C417.653 116.399 419.896 118.63 422.115 120.899C422.667 121.463 423.231 122.014 423.795 122.566C425.612 124.321 427.493 126.151 428.959 128.507C431.667 132.857 432.569 137.758 431.654 143.06C430.689 148.663 427.304 152.537 424.472 155.294C421.187 158.478 417.891 161.8 414.707 164.996C413.29 166.413 411.874 167.842 410.458 169.258L403.538 176.165C398.073 181.618 392.608 187.07 387.155 192.535C384.122 195.569 381.101 198.602 378.08 201.636C374.783 204.945 371.487 208.254 368.19 211.551C363.753 215.988 359.315 220.413 354.878 224.838C350.566 229.137 346.266 233.437 341.954 237.736C338.808 240.882 335.662 244.041 332.516 247.2C329.332 250.396 326.16 253.58 322.964 256.764C318.451 261.277 313.939 265.777 309.426 270.277C305.19 274.501 300.965 278.713 296.741 282.95C295.212 284.479 293.67 286.008 292.128 287.537C287.754 291.874 283.228 296.362 278.929 300.9C276.347 303.632 273.251 305.487 269.214 306.741C265.128 308.019 260.992 309.423 256.993 310.79C254.9 311.504 252.806 312.206 250.713 312.908C248.407 313.673 246.1 314.425 243.794 315.189C241.45 315.954 239.093 316.719 236.749 317.508C234.706 318.185 232.663 318.887 230.62 319.589C228.89 320.178 227.147 320.78 225.418 321.356L224.59 321.632C221.494 322.673 218.298 323.751 215.114 324.741C214.437 324.941 213.76 325.042 213.108 325.042ZM284.043 207.953C282.201 209.783 280.37 211.614 278.528 213.444C276.058 215.9 273.589 218.357 271.132 220.814C269.001 222.945 266.883 225.089 264.765 227.232C262.772 229.25 260.766 231.268 258.76 233.286C256.742 235.317 254.712 237.323 252.681 239.341C251.102 240.908 249.51 242.487 247.943 244.066C242.691 249.318 237.451 254.571 232.211 259.835C232.074 259.973 231.948 260.174 231.873 260.362C231.159 262.292 230.444 264.348 229.617 266.817C228.275 270.816 226.947 274.814 225.606 278.813L222.171 289.117C220.88 292.99 219.576 296.863 218.298 300.749C217.358 303.582 216.417 306.415 215.477 309.26C214.462 312.344 213.434 315.428 212.419 318.511C212.156 319.313 212.356 319.526 212.557 319.765C212.732 319.965 212.92 320.166 213.61 319.94C216.743 318.962 219.915 317.897 222.986 316.869L223.813 316.593C225.543 316.017 227.26 315.427 228.99 314.838C231.046 314.136 233.101 313.434 235.157 312.745C237.514 311.968 239.87 311.191 242.227 310.426C244.521 309.674 246.827 308.922 249.121 308.157C251.202 307.468 253.283 306.753 255.363 306.051C259.387 304.685 263.561 303.269 267.71 301.965C270.944 300.962 273.276 299.571 275.281 297.452C279.631 292.865 284.181 288.352 288.581 283.977C290.123 282.448 291.652 280.931 293.181 279.402C297.405 275.178 301.642 270.954 305.879 266.729C310.392 262.229 314.904 257.729 319.417 253.217C322.601 250.033 325.784 246.849 328.956 243.653C332.102 240.494 335.248 237.335 338.394 234.189C342.694 229.889 347.006 225.59 351.318 221.29C355.755 216.866 360.193 212.441 364.63 208.003C367.927 204.707 371.223 201.398 374.508 198.101C377.528 195.067 380.562 192.021 383.595 188.988C389.061 183.523 394.526 178.07 399.991 172.617L406.91 165.711C408.327 164.294 409.743 162.878 411.147 161.461C414.343 158.24 417.653 154.918 420.974 151.697C424.384 148.388 426.151 145.467 426.715 142.208C427.43 138.096 426.765 134.486 424.71 131.165C423.569 129.335 421.99 127.805 420.323 126.176C419.721 125.599 419.119 125.01 418.543 124.421C416.349 122.165 414.105 119.946 411.874 117.727C409.543 115.408 407.199 113.089 404.905 110.733C401.257 106.985 397.384 105.318 392.345 105.318C389.863 105.23 387.18 106.12 385.112 107.624C383.019 109.141 381.088 110.958 379.321 112.688C376.488 115.471 373.693 118.291 370.897 121.112C369.205 122.816 367.513 124.534 365.808 126.238C363.69 128.357 361.572 130.45 359.441 132.556C357.31 134.674 355.166 136.793 353.048 138.911C350.403 141.556 347.758 144.213 345.113 146.871C342.857 149.14 340.601 151.421 338.332 153.677C336.514 155.495 334.684 157.312 332.867 159.13C331.124 160.86 329.382 162.59 327.652 164.319C325.195 166.776 322.738 169.246 320.282 171.702C317.825 174.172 315.368 176.629 312.911 179.098C310.605 181.404 308.298 183.711 305.979 186.005C303.736 188.236 301.492 190.467 299.261 192.698C297.669 194.29 296.077 195.882 294.485 197.487L295.939 198.941L344.725 150.155L346.542 151.885L382.129 187.471L272.085 297.515L234.731 260.161L285.472 209.42L284.043 207.953ZM234.129 310.89C233.114 310.89 232.174 310.476 231.372 309.661C229.604 307.856 227.824 306.064 226.032 304.284L223.876 302.115C223.813 302.053 223.75 301.978 223.688 301.902C221.582 300.549 221.018 298.43 221.996 295.597C223.938 289.982 225.869 284.241 227.724 278.688L229.115 274.539C229.792 272.546 230.444 270.54 231.121 268.522L233.34 261.828L270.48 298.932L256.667 303.607C253.107 304.81 249.547 306.014 245.975 307.205C244.207 307.794 242.427 308.383 240.647 308.959C238.93 309.524 237.213 310.088 235.496 310.652C235.032 310.815 234.581 310.89 234.129 310.89ZM227.536 298.668L229.604 300.737C231.246 302.391 232.888 304.033 234.53 305.7C236.06 305.186 237.589 304.698 239.106 304.196C240.873 303.62 242.64 303.043 244.395 302.454C247.955 301.263 251.515 300.06 255.063 298.856L261.23 296.776L235.558 271.129C235.007 272.809 234.455 274.476 233.891 276.143L232.5 280.28C230.632 285.845 228.702 291.586 226.746 297.227C226.658 297.478 226.608 297.653 226.583 297.766C227.085 298.067 227.386 298.455 227.536 298.668ZM227.436 298.568L227.448 298.581L227.436 298.568ZM383.696 186.193L346.367 148.713L362.775 132.343L400.141 169.747L383.696 186.193ZM353.461 148.726L383.708 179.098L393.059 169.747L362.775 139.425L353.461 148.726ZM401.671 168.067L364.041 130.425L367.087 127.542C367.927 126.752 368.779 125.963 369.606 125.135C374.269 120.485 378.92 115.834 383.558 111.159C386.065 108.627 389.424 107.21 392.996 107.185C396.594 107.173 399.953 108.539 402.498 111.059C408.778 117.288 415.045 123.531 421.288 129.798C423.782 132.305 425.148 135.64 425.123 139.212C425.111 142.885 423.644 146.332 421.012 148.914C417.314 152.562 413.641 156.234 409.969 159.92C408.226 161.662 406.497 163.404 404.754 165.147C404.478 165.422 404.178 165.698 403.864 165.999L401.671 168.067ZM371.236 130.525L401.758 161.06C403.313 159.506 404.867 157.939 406.421 156.385C410.107 152.687 413.779 149.002 417.49 145.342C419.157 143.699 420.084 141.506 420.097 139.187C420.109 136.968 419.257 134.9 417.715 133.346C411.473 127.078 405.218 120.848 398.951 114.619C397.371 113.052 395.265 112.199 393.022 112.212C390.778 112.224 388.672 113.114 387.105 114.694C382.467 119.369 377.804 124.032 373.141 128.683C372.527 129.309 371.888 129.924 371.236 130.525Z" fill="#3443CF"/>
</svg>
