<svg id="Proyectos" xmlns="http://www.w3.org/2000/svg" viewBox="0 0 20.49 20.93"><defs><style>.cls-1{fill:none;}.cls-1,.cls-2{stroke:#f7f7f9;stroke-miterlimit:10;}.cls-2,.cls-3{fill:#fff;}.cls-3{font-size:12px;font-family:Rockwell-Regular, Rockwell;}</style></defs><title>Proyectos</title><path class="cls-1" d="M2.47,3.55V20.74a.69.69,0,0,0,.7.68H21.26a.69.69,0,0,0,.7-.68V15.4a.69.69,0,0,0-.7-.68H9.76a.69.69,0,0,1-.7-.68L9,3.54a.69.69,0,0,0-.7-.68H3.17A.69.69,0,0,0,2.47,3.55Z" transform="translate(-1.97 -0.99)"/><line class="cls-2" x1="6.97" y1="4.49" x2="4.06" y2="4.49"/><line class="cls-2" x1="6.97" y1="7.28" x2="4.06" y2="7.28"/><line class="cls-2" x1="6.97" y1="10.23" x2="4.06" y2="10.23"/><line class="cls-2" x1="10.76" y1="13.87" x2="10.76" y2="16.79"/><line class="cls-2" x1="13.55" y1="13.87" x2="13.55" y2="16.79"/><line class="cls-2" x1="16.5" y1="13.87" x2="16.5" y2="16.79"/><line class="cls-2" x1="7.17" y1="13.34" x2="0.5" y2="20.2"/><text class="cls-3" transform="translate(10.57 10.42)">P</text></svg>