<svg width="641" height="453" viewBox="0 0 641 453" fill="none" xmlns="http://www.w3.org/2000/svg">
<path d="M53.1917 170.41C58.3894 170.41 62.5903 166.202 62.5903 160.995V45.5402C62.5903 30.8118 74.5523 18.8295 89.2556 18.8295H550.984C565.687 18.8295 577.649 30.8118 577.649 45.5402V115.812C577.649 121.019 581.85 125.227 587.048 125.227C592.245 125.227 596.446 121.019 596.446 115.812V45.5402C596.464 20.4342 576.065 0 551.002 0H89.2556C64.1924 0 43.793 20.4342 43.793 45.5402V160.995C43.793 166.202 48.0117 170.41 53.1917 170.41Z" fill="#1BAA18"/>
<path d="M630.833 378.562H596.443V153.464C596.443 148.258 592.242 144.05 587.044 144.05C581.846 144.05 577.645 148.258 577.645 153.464V378.562H554.291V320.166C554.291 314.959 550.09 310.751 544.892 310.751C539.694 310.751 535.494 314.959 535.494 320.166V378.562H377.799C372.601 378.562 368.4 382.77 368.4 387.977V395.216C368.4 397.017 366.94 398.497 365.125 398.497H249.902C248.104 398.497 246.626 397.035 246.626 395.216V387.977C246.626 382.77 242.426 378.562 237.228 378.562H104.721V61.0466H535.494V282.525C535.494 287.731 539.694 291.939 544.892 291.939C550.09 291.939 554.291 287.731 554.291 282.525V51.6319C554.291 46.4253 550.09 42.2172 544.892 42.2172H95.3219C90.1241 42.2172 85.9232 46.4253 85.9232 51.6319V378.562H62.5689V198.648C62.5689 193.441 58.368 189.233 53.1702 189.233C47.9724 189.233 43.7715 193.441 43.7715 198.648V378.562H9.39868C4.20093 378.562 0 382.77 0 387.977V416.613C0 436.316 16.0027 452.346 35.6723 452.346H604.542C624.211 452.346 640.214 436.316 640.214 416.613V387.977C640.214 382.77 636.013 378.562 630.833 378.562ZM621.435 416.595C621.435 425.921 613.869 433.517 604.542 433.517H35.6723C26.3626 433.517 18.7796 425.939 18.7796 416.595V397.374H227.954C229.04 408.554 238.474 417.309 249.92 417.309H365.142C376.57 417.309 386.005 408.554 387.108 397.374H621.452L621.435 416.595Z" fill="#1BAA18"/>
<path d="M261.001 303.872C258.42 308.365 259.951 314.107 264.437 316.71C281.294 326.446 300.536 331.581 320.099 331.581C381.618 331.581 431.673 281.44 431.673 219.817C431.673 158.193 381.618 108.052 320.099 108.052C258.58 108.052 208.525 158.193 208.525 219.817C208.525 245.333 217.337 270.278 233.322 290.071C236.579 294.1 242.489 294.724 246.512 291.461C250.535 288.198 251.158 282.278 247.9 278.249C234.407 261.541 227.287 241.339 227.287 219.817C227.287 168.553 268.923 126.828 320.117 126.828C371.311 126.828 412.947 168.535 412.947 219.817C412.947 271.081 371.311 312.805 320.117 312.805C303.847 312.805 287.845 308.526 273.836 300.43C269.332 297.845 263.582 299.378 261.001 303.872Z" fill="#1BAA18"/>
<path d="M298.781 274.413C300.739 274.413 302.697 273.789 304.335 272.576L365.676 227.357C368.079 225.592 369.503 222.775 369.503 219.797C369.503 216.801 368.079 214.002 365.676 212.237L304.335 167.017C301.487 164.913 297.695 164.592 294.545 166.197C291.394 167.802 289.4 171.029 289.4 174.578V264.998C289.4 268.547 291.394 271.792 294.545 273.379C295.88 274.092 297.339 274.413 298.781 274.413ZM308.162 193.175L344.297 219.815L308.162 246.454V193.175Z" fill="#1BAA18"/>
</svg>
