<svg width="170" height="170" viewBox="0 0 170 170" fill="none" xmlns="http://www.w3.org/2000/svg">
<rect width="170" height="170" rx="85" fill="#00BA56"/>
<path d="M131.8 113.531C130.792 113.53 129.796 113.321 128.875 112.916C128.661 112.822 128.457 112.707 128.265 112.573L109.655 99.6355C108.712 98.9794 107.941 98.1087 107.41 97.097C106.878 96.0853 106.6 94.9621 106.6 93.8222V76.1778C106.6 75.0379 106.878 73.9147 107.41 72.903C107.941 71.8912 108.712 71.0206 109.655 70.3644L128.265 57.4267C128.457 57.293 128.661 57.1784 128.875 57.0844C129.971 56.6031 131.172 56.3999 132.368 56.4933C133.564 56.5868 134.717 56.9739 135.723 57.6194C136.729 58.265 137.556 59.1486 138.128 60.19C138.7 61.2313 139 62.3974 139 63.5822V106.418C139 108.304 138.241 110.112 136.891 111.446C135.541 112.78 133.71 113.529 131.8 113.529V113.531ZM87.7 117H46.3C42.2435 116.996 38.3543 115.402 35.4859 112.57C32.6175 109.737 31.0042 105.895 31 101.889V68.1111C31.0042 64.1047 32.6175 60.2635 35.4859 57.4305C38.3543 54.5975 42.2435 53.0041 46.3 53H87.808C91.8357 53.0047 95.6971 54.587 98.5451 57.3999C101.393 60.2128 102.995 64.0265 103 68.0044V101.889C102.996 105.895 101.383 109.737 98.5141 112.57C95.6457 115.402 91.7565 116.996 87.7 117Z" fill="white"/>
</svg>
